<?xml version="1.0" encoding="UTF-8"?>
<svg width="64" height="64" viewBox="0 0 64 64" fill="none" xmlns="http://www.w3.org/2000/svg">
  <!-- Monitor Base -->
  <rect x="24" y="48" width="16" height="4" fill="#0E7490"/>
  <rect x="20" y="52" width="24" height="4" fill="#0E7490"/>
  
  <!-- Monitor Frame -->
  <rect x="12" y="12" width="40" height="32" fill="#0E7490"/>
  <rect x="16" y="16" width="32" height="24" fill="#0F172A"/>
  
  <!-- Pixel Art Screen Content -->
  <rect x="20" y="20" width="4" height="4" fill="#22D3EE"/>
  <rect x="24" y="20" width="4" height="4" fill="#22D3EE"/>
  <rect x="28" y="20" width="4" height="4" fill="#22D3EE"/>
  <rect x="20" y="24" width="4" height="4" fill="#22D3EE"/>
  <rect x="28" y="24" width="4" height="4" fill="#22D3EE"/>
  <rect x="32" y="24" width="4" height="4" fill="#22D3EE"/>
  <rect x="20" y="28" width="4" height="4" fill="#22D3EE"/>
  <rect x="24" y="28" width="4" height="4" fill="#22D3EE"/>
  <rect x="28" y="28" width="4" height="4" fill="#22D3EE"/>
  <rect x="36" y="20" width="4" height="4" fill="#22D3EE"/>
  <rect x="40" y="24" width="4" height="4" fill="#22D3EE"/>
  <rect x="36" y="28" width="4" height="4" fill="#22D3EE"/>
  
  <!-- Power LED -->
  <rect x="42" y="36" width="2" height="2" fill="#22D3EE"/>
</svg>